<svg viewBox="0 0 329 147" fill="none" xmlns="http://www.w3.org/2000/svg">
<g id="Group 2">
<g id="Group 1">
<path id="m" d="M154.883 130.609L131.367 129.77L135.645 127.367L139.395 110.004L130.684 124.359L123.203 108.324L126.191 129.164L132.48 132.074L110.488 130.121L113.848 128.207L116.074 106.273L111.68 104.32L130.117 102.074L132.598 112.758L134.961 103.246L152.832 104.281L147.441 106.156L149.688 127.641L154.883 130.609Z" fill="#66FCF1"/>
<path id="i" d="M176.121 130.766L155.887 131.391L160.242 129.633L161.609 112.992L156.277 110.883L175.77 110.16L169.52 112.367L171.961 129.477L176.121 130.766ZM173.953 105.648C173.953 106.534 173.27 107.27 171.902 107.855C170.535 108.428 168.751 108.715 166.551 108.715C164.35 108.715 162.56 108.428 161.18 107.855C159.812 107.27 159.129 106.534 159.129 105.648C159.129 104.763 159.819 104.027 161.199 103.441C162.579 102.855 164.363 102.562 166.551 102.562C168.751 102.562 170.535 102.855 171.902 103.441C173.27 104.027 173.953 104.763 173.953 105.648Z" fill="#66FCF1"/>
<path id="t" d="M200.355 131.566L197.445 128.285C196.026 129.392 194.594 130.219 193.148 130.766C191.703 131.299 190.186 131.566 188.598 131.566C186.124 131.566 184.145 130.85 182.66 129.418C181.176 127.986 180.434 126.072 180.434 123.676C180.434 122.96 180.492 122.107 180.609 121.117C180.74 120.128 180.948 118.852 181.234 117.289L178.969 117.562L176.879 121.117L176.156 109.203L178.832 111.879L182.562 111.762C182.914 110.473 183.279 109.229 183.656 108.031C184.047 106.82 184.457 105.648 184.887 104.516L179.887 102.602L196.996 101.84L192.152 104.887C191.892 106.085 191.651 107.217 191.43 108.285C191.221 109.353 191.039 110.388 190.883 111.391L195.355 111.195L198.402 107.445L197.914 118.48L195.16 115.277L190.277 115.961C190.147 117.016 190.049 117.973 189.984 118.832C189.919 119.691 189.887 120.44 189.887 121.078C189.887 122.523 190.115 123.565 190.57 124.203C191.026 124.841 191.768 125.16 192.797 125.16C193.786 125.16 194.809 124.867 195.863 124.281C196.918 123.695 197.94 122.855 198.93 121.762L200.355 131.566Z" fill="#66FCF1"/>
<path id="e" d="M206.527 117.523C206.944 117.862 207.432 118.129 207.992 118.324C208.552 118.507 209.125 118.598 209.711 118.598C210.74 118.598 211.579 118.298 212.23 117.699C212.882 117.1 213.207 116.332 213.207 115.395C213.207 114.939 213.142 114.529 213.012 114.164C212.882 113.799 212.68 113.454 212.406 113.129C211.013 113.337 209.822 113.812 208.832 114.555C207.855 115.284 207.087 116.273 206.527 117.523ZM225.961 131.449L224.203 128.207C222.471 129.301 220.74 130.115 219.008 130.648C217.276 131.182 215.486 131.449 213.637 131.449C210.03 131.449 207.139 130.557 204.965 128.773C202.803 126.977 201.723 124.6 201.723 121.645C201.723 120.082 202.016 118.578 202.602 117.133C203.201 115.674 204.04 114.405 205.121 113.324C206.163 112.283 207.367 111.495 208.734 110.961C210.115 110.427 211.632 110.16 213.285 110.16C216.449 110.16 219.06 110.844 221.117 112.211C223.174 113.578 224.203 115.297 224.203 117.367C224.203 119.451 223.253 121.195 221.352 122.602C219.464 124.008 217.094 124.711 214.242 124.711C213.539 124.711 212.882 124.659 212.27 124.555C211.658 124.438 211.072 124.268 210.512 124.047C211.736 124.88 212.934 125.499 214.105 125.902C215.29 126.293 216.508 126.488 217.758 126.488C219.281 126.488 220.681 126.15 221.957 125.473C223.233 124.796 224.327 123.812 225.238 122.523L225.961 131.449Z" fill="#66FCF1"/>
<path id="v" d="M256.406 110.844L252.637 112.758L243.398 129.125L247.363 131.449L229.16 130.883L232.559 129.086L226.035 112.914L223.008 111.762L240.156 110.082L236.875 112.23L239.121 124.086L243.242 113.48L240.996 111.566L256.406 110.844Z" fill="#66FCF1"/>
<path id="&#60;" d="M18.6328 106.043V113.113L8.88672 118.523L18.6328 123.875V130.965L1.32812 121.473V115.477L18.6328 106.043Z" fill="#66FCF1"/>
<path id="o" d="M27.1953 117.68C27.599 118.174 28.0547 118.539 28.5625 118.773C29.0703 119.008 29.6693 119.125 30.3594 119.125C31.5443 119.125 32.5469 118.76 33.3672 118.031C34.1875 117.302 34.5977 116.41 34.5977 115.355C34.5977 114.939 34.5326 114.561 34.4023 114.223C34.2721 113.884 34.0703 113.585 33.7969 113.324C32.2083 113.767 30.8672 114.353 29.7734 115.082C28.6797 115.798 27.8203 116.664 27.1953 117.68ZM45.3594 120.727C45.3594 121.794 45.2227 122.79 44.9492 123.715C44.6758 124.639 44.2656 125.505 43.7188 126.312C42.638 127.914 41.2318 129.177 39.5 130.102C37.7812 131.026 35.9583 131.488 34.0312 131.488C30.75 131.488 28.0417 130.505 25.9062 128.539C23.7839 126.56 22.7227 124.06 22.7227 121.039C22.7227 117.836 23.8034 115.219 25.9648 113.188C28.1393 111.143 30.9388 110.121 34.3633 110.121C37.5924 110.121 40.2292 111.111 42.2734 113.09C44.3307 115.069 45.3594 117.615 45.3594 120.727Z" fill="#66FCF1"/>
<path id="zero" d="M64.832 108.016C64.4544 108.589 64.168 109.188 63.9727 109.812C63.7773 110.438 63.6797 111.062 63.6797 111.688C63.6797 112.846 64.1289 113.855 65.0273 114.715C65.9258 115.574 66.9805 116.004 68.1914 116.004C69.1419 116.004 70.0534 115.743 70.9258 115.223C71.7982 114.689 72.4102 114.025 72.7617 113.23C71.8112 111.59 70.6589 110.327 69.3047 109.441C67.9635 108.543 66.4727 108.068 64.832 108.016ZM79.6758 118.289C79.6758 119.565 79.5065 120.789 79.168 121.961C78.8424 123.12 78.3477 124.227 77.6836 125.281C76.1992 127.56 74.1224 129.376 71.4531 130.73C68.7969 132.085 65.9518 132.762 62.918 132.762C61.3555 132.762 59.8841 132.56 58.5039 132.156C57.1237 131.753 55.8346 131.154 54.6367 130.359C52.5664 128.979 50.9518 127.234 49.793 125.125C48.6471 123.003 48.0742 120.724 48.0742 118.289C48.0742 116.414 48.4258 114.637 49.1289 112.957C49.8451 111.277 50.8802 109.773 52.2344 108.445C53.9141 106.779 55.8737 105.496 58.1133 104.598C60.3659 103.686 62.7161 103.23 65.1641 103.23C67.1953 103.23 69.0378 103.562 70.6914 104.227C72.3451 104.878 73.849 105.867 75.2031 107.195C76.5833 108.562 77.6706 110.236 78.4648 112.215C79.2721 114.194 79.6758 116.219 79.6758 118.289Z" fill="#66FCF1"/>
<path id="v_2" d="M113.406 111.844L109.637 113.758L100.398 130.125L104.363 132.449L86.1602 131.883L89.5586 130.086L83.0352 113.914L80.0078 112.762L97.1562 111.082L93.875 113.23L96.1211 125.086L100.242 114.48L97.9961 112.566L113.406 111.844Z" fill="#66FCF1"/>
<path id="a" d="M264.328 114.965C263.99 115.355 263.742 115.772 263.586 116.215C263.43 116.658 263.352 117.172 263.352 117.758C263.352 118.904 263.723 119.867 264.465 120.648C265.22 121.417 266.145 121.801 267.238 121.801C267.629 121.801 268.033 121.723 268.449 121.566C268.866 121.397 269.289 121.156 269.719 120.844C268.885 119.307 268.013 118.051 267.102 117.074C266.203 116.085 265.279 115.382 264.328 114.965ZM278 110.883L275.129 112.191L275.715 128.559L277.961 130.277L269.367 131.352L270.832 125.395C269.634 127.361 268.247 128.845 266.672 129.848C265.109 130.85 263.404 131.352 261.555 131.352C259.341 131.352 257.473 130.447 255.949 128.637C254.439 126.814 253.684 124.561 253.684 121.879C253.684 118.454 254.497 115.642 256.125 113.441C257.753 111.228 259.803 110.121 262.277 110.121C264.152 110.121 265.799 110.616 267.219 111.605C268.651 112.582 269.855 114.047 270.832 116L269.602 109.965L278 110.883Z" fill="#66FCF1"/>
<path id="forwardSlash" d="M309.84 101.234L291.48 135.609L289.605 133.676L305.523 97.8359L309.84 101.234Z" fill="#66FCF1"/>
<path id="&#62;" d="M309.328 130.965V123.836L319.113 118.484L309.367 113.074L309.328 106.043L326.633 115.516V121.473L309.328 130.965Z" fill="#66FCF1"/>
</g>
</g>

<style>
      @keyframes bounce {
         0% {
            transform: translateY(0);
         }

         10% {
            transform: translateY(0);
         }

         30% {
            transform: translateY(-40px);
         }

         50% {
            transform: translateY(0);
         }

         57% {
            transform: translateY(-7px);
         }

         64% {
            transform: translateY(0);
         }

         100% {
            transform: translateY(0);
         }
      }

      @keyframes shake {

         10%,
         90% {
            transform: translate3d(-1px, 0, 0);
         }

         20%,
         80% {
            transform: translate3d(2px, 0, 0);
         }

         30%,
         50%,
         70% {
            transform: translate3d(-4px, 0, 0);
         }

         40%,
         60% {
            transform: translate3d(4px, 0, 0);
         }
      }


      @keyframes scale {
         0% {
            transform: scaleY(1) scaleX(1);
         }

         50% {
            transform: scaleY(1.2) scaleX(1);
         }

         100% {
            transform: scaleY(1) scaleX(1);
         }
      }


      #zero {
         animation-delay: 1s;
         animation-duration: 2s;
         animation-iteration-count: infinite;
         animation-name: bounce;
         animation-timing-function: ease-out;
      }

      #m {
         animation-duration: 1s;
         animation-name: shake;
         animation-iteration-count: infinite;
         animation-timing-function: ease-out;
      }

      #forwardSlash {
         transform-origin: bottom;
         animation-duration: 3s;
         animation-name: scale;
         animation-iteration-count: infinite;
         animation-timing-function: ease;

      }

   </style>
</svg>
