<svg xmlns="http://www.w3.org/2000/svg" width="358.999" height="125.1053" viewBox="0 0 358.999 125.1053"><defs><style>.a{fill:#1d1e24;}</style></defs><path class="a" d="M35.4787,93.3426H52.71V37.1444H35.591V26.1073H83.343V37.1444H66.2248V93.3426H83.2307V104.38H35.4787Z" transform="translate(-3.4265 -2.7076)"/><path class="a" d="M120.2814,37.1444H98.6574V26.1073h56.6494V37.1444H133.7961V104.38H120.2814Z" transform="translate(-3.4265 -2.7076)"/><path class="a" d="M198.7126,108.3446q-1.9.435-4.041.76a28.3654,28.3654,0,0,1-4.2588.3252,26.18,26.18,0,0,1-6.1026-.624,9.1006,9.1006,0,0,1-4.2314-2.1963,9.76,9.76,0,0,1-2.4951-4.2314,22.6549,22.6549,0,0,1-.8408-6.7266,19.4262,19.4262,0,0,1,1.03-6.835,11.1173,11.1173,0,0,1,2.8487-4.3672,10.073,10.073,0,0,1,4.4209-2.3056,23.9641,23.9641,0,0,1,5.8047-.65,31.3863,31.3863,0,0,1,4.1767.27,34.1608,34.1608,0,0,1,3.9053.76l-.5967,4.7734a26.6652,26.6652,0,0,0-3.3633-.623,31.4663,31.4663,0,0,0-3.6338-.1905,14.8285,14.8285,0,0,0-3.3906.3526,5.4626,5.4626,0,0,0-2.55,1.3564,6.2643,6.2643,0,0,0-1.6006,2.7393,15.4678,15.4678,0,0,0-.542,4.5029,17.9585,17.9585,0,0,0,.461,4.5293,6.2608,6.2608,0,0,0,1.4375,2.7393,5.0164,5.0164,0,0,0,2.4951,1.41,15.3875,15.3875,0,0,0,3.6894.38,24.6864,24.6864,0,0,0,3.39-.2441,32.869,32.869,0,0,0,3.499-.6778Z" transform="translate(-3.4265 -2.7076)"/><path class="a" d="M220.8444,85.453a22.7284,22.7284,0,0,1,4.34-3.0928,8.9868,8.9868,0,0,1,4.23-1.085,11.1988,11.1988,0,0,1,2.4414.2442,8.5942,8.5942,0,0,1,2.1163.7871l-1.0313,5.8584a9.1668,9.1668,0,0,0-2.0068-.8682,8.2927,8.2927,0,0,0-2.3867-.3252,6.2452,6.2452,0,0,0-1.6553.2168,9.6776,9.6776,0,0,0-1.627.624,12.8555,12.8555,0,0,0-1.7363,1.0313q-.895.624-2.0342,1.3828v13.833h8.0293v4.8281H208.26v-4.8281h6.7265V86.9178h-6.4013V82.035H220.41Z" transform="translate(-3.4265 -2.7076)"/><path class="a" d="M263.6989,108.1824a34.71,34.71,0,0,1-4.584.9219,39.7577,39.7577,0,0,1-5.289.3252,24.6587,24.6587,0,0,1-5.4248-.542,8.6373,8.6373,0,0,1-4.0137-2.0342,9.4643,9.4643,0,0,1-2.4951-4.1777,23.3752,23.3752,0,0,1-.8682-7.0244,22.2462,22.2462,0,0,1,.9219-6.9434A10.9238,10.9238,0,0,1,244.55,84.286a9.3436,9.3436,0,0,1,4.042-2.3321,20.392,20.392,0,0,1,10.0078-.1084,7.65,7.65,0,0,1,3.4453,1.9532,8.507,8.507,0,0,1,2.0615,3.77,22.5047,22.5047,0,0,1,.6778,6.0215q0,.9228-.0274,1.8174t-.1357,1.8711H247.5339a13.34,13.34,0,0,0,.5146,3.7431,4.65,4.65,0,0,0,1.3565,2.17,4.9178,4.9178,0,0,0,2.3056,1.0313,17.7256,17.7256,0,0,0,3.3086.27,27.4808,27.4808,0,0,0,4.2041-.2979q1.9248-.2973,3.9336-.7871Zm-4.72-15.1347a13.8677,13.8677,0,0,0-.3525-3.418,4.65,4.65,0,0,0-1.0577-2.0889,3.8592,3.8592,0,0,0-1.7089-1.03,8.1238,8.1238,0,0,0-2.3057-.2989,8.483,8.483,0,0,0-2.44.3262,4.5235,4.5235,0,0,0-1.8721,1.085,4.9964,4.9964,0,0,0-1.2207,2.0879,11.9368,11.9368,0,0,0-.4873,3.3369Z" transform="translate(-3.4265 -2.7076)"/><path class="a" d="M290.0622,90.39a3.4935,3.4935,0,0,0-1.248-2.93,6.7708,6.7708,0,0,0-4.1231-.9766,32.0369,32.0369,0,0,0-4.0684.2715q-2.1151.2726-4.1767.7051l-.5967-4.7734a45.9447,45.9447,0,0,1,4.8281-.8682,40.2443,40.2443,0,0,1,5.0987-.3252,21.1843,21.1843,0,0,1,5.0449.5146,8.5415,8.5415,0,0,1,3.3359,1.5469,5.8036,5.8036,0,0,1,1.8448,2.6572,11.68,11.68,0,0,1,.5693,3.8516v18.8242h-5.4248l-.3789-2.4951A27.9587,27.9587,0,0,1,286.4,108.535a13.4462,13.4462,0,0,1-4.9092.8945,9.1669,9.1669,0,0,1-6.0488-1.9531q-2.36-1.9527-2.3594-5.9668a9.7248,9.7248,0,0,1,.7051-3.7969,6.41,6.41,0,0,1,2.3594-2.8213,12.3851,12.3851,0,0,1,4.3672-1.7353,31.6581,31.6581,0,0,1,6.6718-.5967h2.876Zm-2.7129,6.4a28.2655,28.2655,0,0,0-4.0683.2441,7.8007,7.8007,0,0,0-2.6036.7871A3.1018,3.1018,0,0,0,279.321,99.15a4.2563,4.2563,0,0,0-.38,1.8711,3.2908,3.2908,0,0,0,1.0576,2.7393,4.6338,4.6338,0,0,0,2.9571.8408,9.0741,9.0741,0,0,0,3.39-.6367,26.2921,26.2921,0,0,0,3.7168-1.9121V96.79Z" transform="translate(-3.4265 -2.7076)"/><path class="a" d="M312.14,82.035V73.5731l6.5088-.8682v9.33h11.3926v4.8828H318.6491V99.1229a9.8853,9.8853,0,0,0,.2715,2.4951,3.38,3.38,0,0,0,.8955,1.6279,3.9061,3.9061,0,0,0,1.709.8946,10.1393,10.1393,0,0,0,2.6572.2988,15.9333,15.9333,0,0,0,3.3906-.3262q1.4913-.3252,2.36-.5967l.542,4.666q-1.3023.38-3.2822.7862a23.2609,23.2609,0,0,1-4.6377.4072,20.08,20.08,0,0,1-4.7471-.4883,7.8013,7.8013,0,0,1-3.2275-1.5459,6.2818,6.2818,0,0,1-1.8438-2.6855,11.36,11.36,0,0,1-.5967-3.9063V86.9178H305.196V82.035Z" transform="translate(-3.4265 -2.7076)"/><path class="a" d="M361.3405,108.1824a34.71,34.71,0,0,1-4.584.9219,39.7577,39.7577,0,0,1-5.289.3252,24.6587,24.6587,0,0,1-5.4248-.542,8.6373,8.6373,0,0,1-4.0137-2.0342,9.4643,9.4643,0,0,1-2.4951-4.1777,23.3752,23.3752,0,0,1-.8682-7.0244,22.2462,22.2462,0,0,1,.9219-6.9434,10.925,10.925,0,0,1,2.6035-4.4218,9.3436,9.3436,0,0,1,4.042-2.3321,20.392,20.392,0,0,1,10.0078-.1084,7.65,7.65,0,0,1,3.4453,1.9532,8.507,8.507,0,0,1,2.0615,3.77,22.5047,22.5047,0,0,1,.6778,6.0215q0,.9228-.0274,1.8174t-.1357,1.8711H345.1755a13.34,13.34,0,0,0,.5146,3.7431,4.65,4.65,0,0,0,1.3565,2.17,4.9178,4.9178,0,0,0,2.3056,1.0313,17.7256,17.7256,0,0,0,3.3086.27,27.4808,27.4808,0,0,0,4.2041-.2979q1.9248-.2973,3.9336-.7871Zm-4.72-15.1347a13.8677,13.8677,0,0,0-.3525-3.418,4.65,4.65,0,0,0-1.0577-2.0889,3.8592,3.8592,0,0,0-1.7089-1.03,8.1238,8.1238,0,0,0-2.3057-.2989,8.483,8.483,0,0,0-2.44.3262,4.5235,4.5235,0,0,0-1.8721,1.085,4.9974,4.9974,0,0,0-1.2207,2.0879,11.9368,11.9368,0,0,0-.4873,3.3369Z" transform="translate(-3.4265 -2.7076)"/><polygon class="a" points="162.929 79.771 157.282 79.771 157.282 120.231 104.155 120.231 104.155 125.105 162.929 125.105 162.929 79.771"/><rect class="a" x="104.155" y="119.4582" width="53.4891" height="5.6471"/><polygon class="a" points="0 45.334 5.647 45.334 5.647 4.874 58.774 4.874 58.774 0 0 0 0 45.334"/><rect class="a" x="5.2845" width="53.4891" height="5.6471"/></svg>